<?xml version="1.0" encoding="utf-8"?>
<svg version="1.1" id="Layer_1" xmlns="http://www.w3.org/2000/svg" xmlns:xlink="http://www.w3.org/1999/xlink" x="0px" y="0px" viewBox="0 0 210.3 69" style="enable-background:new 0 0 210.3 69;" xml:space="preserve">
	<path class="st0" d="M126.6,22.1V48H120l-0.4-4.3c-3.7,3.4-7.5,4.7-12.9,4.7c-12.1,0-21.6-8.5-21.6-23.3c0-13.4,10.1-23.3,22.6-23.3 c6.3,0,11.9,2.5,16,6.7l-5.3,5.3c-2.7-2.7-6.5-4.4-10.7-4.4c-8.3,0-15.1,5.8-15.1,15.7c0,11,6.7,15.7,15.1,15.7 c4.5,0,8.5-1.9,11.3-5.1v-6.5h-7.6V22h15.2V22.1z"/>
	<path class="st0" d="M131,33.4V2.6h7.6v30.8c0.4,5.2,4.6,7.6,9.4,7.6c4.7,0,9.4-2.5,9.4-7.6V2.6h7.6v30.8c0,9.6-7.4,15.1-17,15.1 C138.6,48.5,131,42.7,131,33.4z"/>
	<path class="st0" d="M208.8,2.6l-17,23.8v21.4h-7.5V26.5l-17-23.8h9.2l11.6,16.1l11.5-16.2H208.8z"/>
	<g>
		<path class="st1" d="M119.9,52.1h12.7V54h-5.3v13.3h-2.2V54h-5.2C119.9,54,119.9,52.1,119.9,52.1z"/>
		<path class="st1" d="M137.5,67.3V52.1h3.8c1.5,0,2.8,0.4,3.7,1.1c0.9,0.8,1.4,1.8,1.4,3.1c0,0.9-0.2,1.7-0.7,2.3 c-0.4,0.6-1.1,1.1-1.9,1.5c0.5,0.3,1,0.8,1.4,1.3c0.5,0.6,1.1,1.5,2,2.9c0.5,0.9,1,1.5,1.3,2l0.8,1.1h-2.6l-0.7-1 c0,0-0.1-0.1-0.1-0.2l-0.4-0.6l-0.7-1.1l-0.7-1.2c-0.5-0.6-0.9-1.1-1.2-1.5c-0.4-0.4-0.7-0.6-1-0.8c-0.3-0.2-0.8-0.2-1.5-0.2h-0.6 v6.6h-2.3V67.3z M140.4,53.9h-0.7v4.8h0.8c1.1,0,1.9-0.1,2.3-0.3s0.7-0.5,1-0.9c0.2-0.4,0.3-0.8,0.3-1.3s-0.1-0.9-0.4-1.3 c-0.3-0.4-0.6-0.7-1.1-0.8S141.4,53.9,140.4,53.9z"/>
		<path class="st1" d="M158.6,52h1.5l6.8,15.3h-2.2l-2-4.5h-6.5l-1.9,4.5h-2.2L158.6,52z M161.8,60.9l-2.5-5.5l-2.3,5.5H161.8z"/>
		<path class="st1" d="M179.2,52.1h2.2L175,67.4h-0.5l-6.6-15.3h2.2l4.6,10.7L179.2,52.1z"/>
		<path class="st1" d="M185.8,52.1h8.6V54h-6.5v4.7h6.2v2h-6.2v4.7h6.7v1.9h-8.9L185.8,52.1L185.8,52.1z"/>
		<path class="st1" d="M199.8,52.1h2.2v13.3h6.9v2h-9L199.8,52.1L199.8,52.1z"/>
	</g>
	<path class="st2" d="M60.8,2.1C43,2.1,35.8,18.7,39.3,32l3.7-2.4c1.2-0.8,2.4-1.1,3.4-1.3C45,19.5,49.8,9.5,60.8,9.5 c19.6,0,19.6,31.7,0,31.7c-5.2,0-9-2.3-11.5-5.6c-0.4,0.4-0.8,0.9-1.4,1.3l-4.6,3.4c3.7,4.9,9.6,8.2,17.5,8.2 C90.5,48.4,90.4,2.1,60.8,2.1z"/>
	<path class="st2" d="M49.9,30.3L49.9,30.3C50,30.3,50,30.2,49.9,30.3C49.9,30.2,49.9,30.2,49.9,30.3L49.9,30.3 c-0.6-0.4-3.6-1.9-7.2,0.3l-5.8,3.7l-12.3-5.1L22,30.6l10.3,7.2c0,0-1,0.9-2.3,2c-1.7,0.7-3.6,1.1-5.6,1.1 c-8.3,0-15.1-4.7-15.1-15.7c0-9.9,6.7-15.7,15.1-15.7c4.1,0,7.9,1.7,10.7,4.4l5.3-5.3c-4.1-4.1-9.7-6.7-16-6.7 C11.9,2,1.8,11.8,1.8,25.2c0,14.8,9.5,23.3,21.6,23.3c5.4,0,9.2-1.3,12.8-4.7V44v0.1l0,0l2.8,12l2.3-1.9V40.8l5.6-4 C50.3,34.2,50,30.9,49.9,30.3z"/>
</svg>
